:version 1.10
:name ASF
:units
  mass 1
  length 1
  angle deg
:documentation
  ASF file generated by Kaydara
:root
  axis xyz
  order  tx ty tz rx ry rz
  position 0 0 0
  orientation 0 0 0
:bonedata
  begin
    id 1
    name RightUpLegDummy
    direction -1 2.30186e-007 8.31532e-007
    length 4.04083
    axis 0 0 0 xyz
  end
  begin
    id 2
    name RightUpLeg
    direction -0.000919234 -0.999985 0.00544864
    length 17.4221
    axis -3.80308 -0.00076134 -0.0523649 xyz
    dof rx ry rz
  end
  begin
    id 3
    name RightLeg
    direction -0.000919271 -0.999984 -0.00555045
    length 17.1239
    axis 4.00314 0.0181274 -0.183583 xyz
    dof rx ry rz
  end
  begin
    id 4
    name RightFoot
    direction -2.57843e-005 -4.04509e-007 1
    length 6.72091
    axis 8.18909e-005 -0.122003 -0.403008 xyz
    dof rx ry rz
  end
  begin
    id 5
    name RightToes
    direction 0.00116825 -0.014069 0.9999
    length 3.85082
    axis 0.000514414 0.540638 -0.356797 xyz
    dof rx ry rz
  end
  begin
    id 6
    name SpineDummy
    direction 0.0168869 0.966876 -0.254689
    length 6.99894
    axis 0 0 0 xyz
  end
  begin
    id 7
    name Spine
    direction -0.0132008 0.999903 0.00446247
    length 11.1999
    axis -0.00148109 0.00725429 0.756411 xyz
    dof rx ry rz
  end
  begin
    id 8
    name Spine1
    direction 0 0 0
    length 0
    axis -0.000934958 0.0245693 1.46543 xyz
    dof rx ry rz
  end
  begin
    id 9
    name HEadDummy
    direction -0.0255732 0.999672 0.00128215
    length 3.43865
    axis -0.000934958 0.0245693 1.46543 xyz
  end
  begin
    id 10
    name HEad
    direction -0.0472656 0.980052 0.19304
    length 5.12695
    axis -0.000934954 0.0245693 1.46543 xyz
    dof rx ry rz
  end
  begin
    id 11
    name LeftShoulder1Dummy
    direction 0.953098 0.301717 -0.023914
    length 3.68488
    axis -0.000934958 0.0245693 1.46543 xyz
  end
  begin
    id 12
    name LeftShoulder1
    direction 0.962466 0.271167 0.0112566
    length 3.13809
    axis -0.000934958 0.0245693 1.46543 xyz
    dof rx ry rz
  end
  begin
    id 13
    name LeftArm
    direction 0.999943 0.00455037 -0.00961766
    length 11.3419
    axis -23.1648 0.685459 1.22814 xyz
    dof rx ry rz
  end
  begin
    id 14
    name LeftForeArm
    direction 0.999332 0.0131969 0.0340885
    length 8.70632
    axis -9.90633 0.618216 0.0826942 xyz
    dof rx ry rz
  end
  begin
    id 15
    name LeftHand
    direction 0.994373 -0.0366703 0.0993905
    length 5.32135
    axis 0.00675269 0.680415 0.445699 xyz
    dof rx ry rz
  end
  begin
    id 16
    name RightShoulderDummy
    direction -0.967298 0.252589 -0.0230903
    length 3.68488
    axis -0.000934958 0.0245693 1.46543 xyz
  end
  begin
    id 17
    name RightShoulder
    direction -0.975062 0.221602 0.0120823
    length 3.13809
    axis 0.216257 0.0246515 1.45863 xyz
    dof rx ry rz
  end
  begin
    id 18
    name RightArm
    direction -0.99886 -0.00851186 -0.0469687
    length 10.3947
    axis -23.196 0.23503 -0.532632 xyz
    dof rx ry rz
  end
  begin
    id 19
    name RightForeArm
    direction -0.99909 0.00114866 0.0426317
    length 8.68355
    axis -9.91764 -0.134943 0.610517 xyz
    dof rx ry rz
  end
  begin
    id 20
    name RightHand
    direction -0.992888 -0.0489538 0.10852
    length 5.28593
    axis -0.00275396 -0.197403 0.246414 xyz
    dof rx ry rz
  end
  begin
    id 21
    name LeftUpLegDummy
    direction 1 -2.30186e-007 -8.31532e-007
    length 4.04083
    axis 0 0 0 xyz
  end
  begin
    id 22
    name LeftUpLeg
    direction -0.000920097 -1 2.79241e-006
    length 17.4221
    axis -3.48782 0.00143434 -0.0532288 xyz
    dof rx ry rz
  end
  begin
    id 23
    name LeftLeg
    direction -0.000920097 -1 2.7912e-006
    length 17.1239
    axis 3.68162 -0.00806512 -0.0529896 xyz
    dof rx ry rz
  end
  begin
    id 24
    name LeftFoot
    direction -2.57845e-005 -3.987e-007 1
    length 6.72091
    axis 3.02372e-005 -0.00147829 -0.214229 xyz
    dof rx ry rz
  end
  begin
    id 25
    name LeftToes
    direction 0.00813577 -0.00488255 0.999955
    length 3.85048
    axis 3.89895e-005 -0.0014783 -0.214229 xyz
    dof rx ry rz
  end
:hierarchy
  begin
    root RightUpLegDummy SpineDummy LeftUpLegDummy
    RightUpLegDummy RightUpLeg
    RightUpLeg RightLeg
    RightLeg RightFoot
    RightFoot RightToes
    SpineDummy Spine
    Spine Spine1
    Spine1 HEadDummy LeftShoulder1Dummy RightShoulderDummy
    HEadDummy HEad
    LeftShoulder1Dummy LeftShoulder1
    LeftShoulder1 LeftArm
    LeftArm LeftForeArm
    LeftForeArm LeftHand
    RightShoulderDummy RightShoulder
    RightShoulder RightArm
    RightArm RightForeArm
    RightForeArm RightHand
    LeftUpLegDummy LeftUpLeg
    LeftUpLeg LeftLeg
    LeftLeg LeftFoot
    LeftFoot LeftToes
  end

:SAMPLES-PER-SECOND 30
:FULLY-SPECIFIED
:DEGREES
147
root  -41.8416 34.8439 23.4727 -165.481 65.202 -175.063
RightUpLeg  -7.19268 -13.7851 -0.70118
RightLeg  4.32776 -3.16436 -0.0343492
RightFoot  7.54777 0.0430002 -0.248323
RightToes  -29.9451 -0.14449 -0.25971
Spine  -1.62863 -0.736655 0.301252
Spine1  -3.18299 -1.29117 1.27974
HEad  -40.8936 12.8533 -1.809
LeftShoulder1  -1.94126e-019 -3.10601e-018 -2.51263e-017
LeftArm  -6.42039 18.8333 -77.8065
LeftForeArm  40.0478 -65.3548 -20.7989
LeftHand  -0.574376 -2.30654 8.86861
RightShoulder  -4.96962e-017 0 -2.36833e-017
RightArm  -17.2682 -30.4993 74.593
RightForeArm  50.2454 46.8916 8.40523
RightHand  -0.499898 0.127017 -10.5744
LeftUpLeg  -3.42528 9.33723 7.85676
LeftLeg  1.28471 15.7492 -0.651164
LeftFoot  9.85862 -0.245608 2.94313
LeftToes  -28.9922 2.32378e-006 -5.43956e-008
148
root  -41.9432 34.8556 23.5603 -165.344 65.1683 -175.303
RightUpLeg  -8.07417 -13.512 -0.607258
RightLeg  4.9512 -3.49599 -0.0759742
RightFoot  7.39725 0.0449993 -0.279388
RightToes  -29.8129 -0.143456 -0.259143
Spine  -1.61288 -0.651549 0.278117
Spine1  -3.14804 -1.12133 1.25094
HEad  -41.9674 13.4008 -1.38725
LeftShoulder1  -1.94126e-019 -3.10601e-018 -2.51263e-017
LeftArm  -4.44305 18.3914 -78.187
LeftForeArm  40.4115 -65.5645 -20.9914
LeftHand  -0.588339 -2.56943 8.79709
RightShoulder  -4.96962e-017 0 -2.36833e-017
RightArm  -15.8458 -30.0718 74.4387
RightForeArm  50.4982 49.3639 9.30404
RightHand  -0.500307 0.155239 -10.5317
LeftUpLeg  -4.4142 8.7907 7.73544
LeftLeg  2.1364 16.2622 -0.433154
LeftFoot  9.7467 -0.251431 3.00758
LeftToes  -28.948 2.32378e-006 -5.43956e-008
149
root  -42.0205 34.8677 23.6338 -165.338 65.026 -175.577
RightUpLeg  -8.62989 -13.4885 -0.550535
RightLeg  5.25425 -3.66242 -0.098962
RightFoot  7.29908 0.0458266 -0.293536
RightToes  -29.611 -0.142758 -0.258671
Spine  -1.60894 -0.54945 0.312114
Spine1  -3.14359 -0.931397 1.3379
HEad  -42.9474 13.6897 -1.35351
LeftShoulder1  -1.94126e-019 -3.10601e-018 -2.51263e-017
LeftArm  -2.73993 18.457 -78.8667
LeftForeArm  39.9115 -64.6198 -19.9954
LeftHand  -0.572774 -2.74318 8.39922
RightShoulder  -4.96962e-017 0 -2.36833e-017
RightArm  -14.669 -29.6687 74.0153
RightForeArm  50.4272 50.5103 9.76925
RightHand  -0.49258 0.172865 -10.3389
LeftUpLeg  -5.17616 8.70361 7.62834
LeftLeg  2.73672 16.2283 -0.264516
LeftFoot  9.73574 -0.252029 2.99809
LeftToes  -28.849 2.32378e-006 -5.43956e-008
150
root  -42.0744 34.8724 23.676 -165.58 64.5217 -175.863
RightUpLeg  -8.65816 -13.8648 -0.543441
RightLeg  5.20758 -3.79135 -0.0993831
RightFoot  7.28245 0.0467344 -0.308642
RightToes  -29.4822 -0.142356 -0.258286
Spine  -1.5521 -0.594068 0.360738
Spine1  -3.04202 -1.036 1.44726
HEad  -43.4394 14.0185 -1.586
LeftShoulder1  -1.94126e-019 -3.10601e-018 -2.51263e-017
LeftArm  -1.48111 18.7585 -79.5784
LeftForeArm  38.6435 -62.3891 -17.9651
LeftHand  -0.565415 -3.1129 7.95797
RightShoulder  -4.96962e-017 0 -2.36833e-017
RightArm  -13.6373 -29.1576 73.6053
RightForeArm  50.3559 50.4012 9.73074
RightHand  -0.483578 0.124355 -10.236
LeftUpLeg  -5.54082 8.32871 7.58805
LeftLeg  2.95354 16.1076 -0.202466
LeftFoot  9.80312 -0.252497 2.99343
LeftToes  -28.8972 2.32378e-006 -5.43956e-008
151
root  -42.1274 34.8722 23.7044 -165.916 64.0606 -176.236
RightUpLeg  -8.68184 -14.1364 -0.616099
RightLeg  5.19854 -4.00354 -0.104345
RightFoot  7.22496 0.0481911 -0.33138
RightToes  -29.468 -0.142206 -0.257983
Spine  -1.50531 -0.578194 0.411876
Spine1  -2.96366 -1.02122 1.55703
HEad  -43.2289 14.2746 -2.13583
LeftShoulder1  -1.94126e-019 -3.10601e-018 -2.51263e-017
LeftArm  -0.74483 19.2942 -80.3818
LeftForeArm  36.8835 -59.3457 -15.7134
LeftHand  -0.538122 -3.23809 7.48406
RightShoulder  -4.96962e-017 0 -2.36833e-017
RightArm  -12.9459 -28.854 73.1188
RightForeArm  50.0728 49.7456 9.4864
RightHand  -0.481887 0.240396 -10.0007
LeftUpLeg  -5.76119 7.81075 7.50416
LeftLeg  2.96538 16.1266 -0.199409
LeftFoot  9.90878 -0.254828 3.02414
LeftToes  -28.8268 2.32378e-006 -5.43956e-008
152
root  -42.1819 34.8684 23.7172 -166.323 63.3841 -176.657
RightUpLeg  -8.66378 -14.5199 -0.729563
RightLeg  5.25611 -4.27984 -0.115875
RightFoot  7.13389 0.0500154 -0.359134
RightToes  -29.5488 -0.142268 -0.257753
Spine  -1.46125 -0.619003 0.466466
Spine1  -2.89399 -1.12105 1.67382
HEad  -42.598 14.7751 -2.5887
LeftShoulder1  -1.94126e-019 -3.10601e-018 -2.51263e-017
LeftArm  -0.690761 20.3633 -81.0371
LeftForeArm  35.4814 -56.4963 -13.9655
LeftHand  -0.514029 -3.36721 7.0631
RightShoulder  -4.96962e-017 0 -2.36833e-017
RightArm  -12.4898 -28.7562 72.643
RightForeArm  49.9637 48.833 9.13878
RightHand  -0.476468 0.179202 -9.99211
LeftUpLeg  -6.02079 7.277 7.39586
LeftLeg  3.02557 15.9479 -0.180732
LeftFoot  9.99434 -0.253973 3.01114
LeftToes  -28.9538 2.32378e-006 -5.43956e-008
